<?xml version="1.0" standalone="no"?>
<!DOCTYPE svg PUBLIC "-//W3C//DTD SVG 20010904//EN"
 "http://www.w3.org/TR/2001/REC-SVG-20010904/DTD/svg10.dtd">
<svg version="1.0" xmlns="http://www.w3.org/2000/svg"
 width="32.000000pt" height="32.000000pt" viewBox="0 0 32.000000 32.000000"
 preserveAspectRatio="xMidYMid meet">
<metadata>
Created by potrace 1.16, written by Pvrple Blvck 2021-20XX
</metadata>
<g transform="translate(0.000000,32.000000) scale(0.100000,-0.100000)"
fill="#000000" stroke="none">
<path d="M0 160 l0 -160 160 0 160 0 0 81 c0 75 -1 80 -19 74 -15 -5 -22 1
-31 30 -6 19 -23 49 -37 65 -52 62 -158 27 -185 -61 -10 -34 -13 -38 -25 -26
-23 22 -6 86 33 125 l32 32 -44 0 -44 0 0 -160z"/>
<path d="M218 310 c40 -9 70 -35 88 -75 13 -29 13 -29 14 28 l0 57 -67 -1
c-56 -1 -62 -2 -35 -9z"/>
<path d="M85 292 c-5 -4 -17 -16 -25 -26 -12 -16 -9 -15 18 4 17 13 32 25 32
27 0 6 -15 3 -25 -5z"/>
</g>
</svg>
